RobotoExtremo-wdth25.ufo
<glyph name="quotesingle" format="2">
  <advance width="393"/>
  <unicode hex="0027"/>
  <outline>
    <contour>
      <point x="124" y="975" type="line"/>
      <point x="100" y="1322" type="line"/>
      <point x="100" y="1456" type="line"/>
      <point x="293" y="1456" type="line"/>
      <point x="293" y="1322" type="line"/>
      <point x="268" y="975" type="line"/>
    </contour>
  </outline>
</glyph>
<glyph name="semicolon" format="2">
  <advance width="592"/>
  <unicode hex="003B"/>
  <outline>
    <contour>
      <point x="123" y="-214" type="line"/>
      <point x="169" y="-152"/>
      <point x="220" y="-20"/>
      <point x="220" y="68" type="qcurve" smooth="yes"/>
      <point x="220" y="216" type="line"/>
      <point x="393" y="216" type="line"/>
      <point x="393" y="69" type="line" smooth="yes"/>
      <point x="393" y="-40"/>
      <point x="301" y="-219"/>
      <point x="224" y="-285" type="qcurve"/>
    </contour>
    <contour>
      <point x="176" y="951" type="qcurve" smooth="yes"/>
      <point x="176" y="999"/>
      <point x="238" y="1068"/>
      <point x="296" y="1068" type="qcurve" smooth="yes"/>
      <point x="354" y="1068"/>
      <point x="416" y="999"/>
      <point x="416" y="951" type="qcurve" smooth="yes"/>
      <point x="416" y="903"/>
      <point x="354" y="834"/>
      <point x="296" y="834" type="qcurve" smooth="yes"/>
      <point x="238" y="834"/>
      <point x="176" y="903"/>
    </contour>
  </outline>
</glyph>
<glyph name="less" format="2">
  <advance width="1068"/>
  <unicode hex="003C"/>
  <outline>
    <contour>
      <point x="888" y="224" type="line"/>
      <point x="172" y="604" type="line"/>
      <point x="172" y="744" type="line"/>
      <point x="888" y="1124" type="line"/>
      <point x="888" y="941" type="line"/>
      <point x="359" y="674" type="line"/>
      <point x="888" y="407" type="line"/>
    </contour>
  </outline>
</glyph>
<glyph name="greater" format="2">
  <advance width="1068"/>
  <unicode hex="003E"/>
  <outline>
    <contour>
      <point x="180" y="224" type="line"/>
      <point x="180" y="407" type="line"/>
      <point x="709" y="674" type="line"/>
      <point x="180" y="941" type="line"/>
      <point x="180" y="1124" type="line"/>
      <point x="896" y="744" type="line"/>
      <point x="896" y="604" type="line"/>
    </contour>
  </outline>
</glyph>
<glyph name="C" format="2">
  <advance width="1158"/>
  <unicode hex="0043"/>
  <anchor x="720" y="0" name="bottom"/>
  <outline>
    <contour>
      <point x="115" y="682" type="qcurve" smooth="yes"/>
      <point x="115" y="774" type="line" smooth="yes"/>
      <point x="115" y="1138.0"/>
      <point x="401.0" y="1486.0"/>
      <point x="636" y="1486" type="qcurve" smooth="yes"/>
      <point x="858" y="1486"/>
      <point x="1108.0" y="1220.0"/>
      <point x="1108" y="1000" type="qcurve" smooth="yes"/>
      <point x="1108" y="990" type="line"/>
      <point x="924" y="990" type="line"/>
      <point x="924" y="1000" type="line" smooth="yes"/>
      <point x="924.0" y="1129.0"/>
      <point x="796.0" y="1327.0"/>
      <point x="636" y="1327" type="qcurve" smooth="yes"/>
      <point x="469" y="1327"/>
      <point x="300" y="1073"/>
      <point x="300" y="815" type="qcurve" smooth="yes"/>
      <point x="300" y="642" type="line" smooth="yes"/>
      <point x="300.0" y="395.0"/>
      <point x="483" y="129.0"/>
      <point x="635" y="129.0" type="qcurve" smooth="yes"/>
      <point x="779" y="129"/>
      <point x="918" y="334"/>
      <point x="924" y="456" type="qcurve"/>
      <point x="924" y="466" type="line"/>
      <point x="1108" y="466" type="line"/>
      <point x="1108" y="456" type="line" smooth="yes"/>
      <point x="1108.0" y="236.0"/>
      <point x="858" y="-30"/>
      <point x="636" y="-30" type="qcurve" smooth="yes"/>
      <point x="399.0" y="-30"/>
      <point x="115" y="323.0"/>
    </contour>
  </outline>
</glyph>
<glyph name="G" format="2">
  <advance width="1182"/>
  <unicode hex="0047"/>
  <outline>
    <contour>
      <point x="115" y="682" type="qcurve" smooth="yes"/>
      <point x="115" y="774" type="line" smooth="yes"/>
      <point x="115" y="1114.0"/>
      <point x="402.0" y="1486.0"/>
      <point x="632" y="1486" type="qcurve" smooth="yes"/>
      <point x="851" y="1486"/>
      <point x="1092" y="1220"/>
      <point x="1101" y="1040" type="qcurve" smooth="yes"/>
      <point x="1102" y="1030" type="line"/>
      <point x="918" y="1030" type="line"/>
      <point x="918" y="1040" type="line" smooth="yes"/>
      <point x="918.0" y="1162.0"/>
      <point x="772" y="1327"/>
      <point x="632" y="1327" type="qcurve" smooth="yes"/>
      <point x="469" y="1327.0"/>
      <point x="300.0" y="1080"/>
      <point x="300" y="814" type="qcurve" smooth="yes"/>
      <point x="300" y="642" type="line" smooth="yes"/>
      <point x="300.0" y="382.0"/>
      <point x="481" y="129"/>
      <point x="641" y="129.0" type="qcurve" smooth="yes"/>
      <point x="736" y="129"/>
      <point x="873" y="168"/>
      <point x="924" y="207" type="qcurve"/>
      <point x="924" y="572" type="line"/>
      <point x="642" y="572" type="line"/>
      <point x="642" y="726" type="line"/>
      <point x="1102" y="726" type="line"/>
      <point x="1102" y="139" type="line"/>
      <point x="1042" y="77"/>
      <point x="820" y="-30"/>
      <point x="636" y="-30" type="qcurve" smooth="yes"/>
      <point x="404.0" y="-30"/>
      <point x="115" y="318.0"/>
    </contour>
  </outline>
</glyph>
<glyph name="J" format="2">
  <advance width="964"/>
  <unicode hex="004A"/>
  <outline>
    <contour>
      <point x="25" y="400" type="qcurve" smooth="yes"/>
      <point x="25" y="410" type="line"/>
      <point x="209" y="410" type="line"/>
      <point x="209" y="370" type="line" smooth="yes"/>
      <point x="209.0" y="237.0"/>
      <point x="315" y="129"/>
      <point x="417" y="129" type="qcurve" smooth="yes"/>
      <point x="518" y="129"/>
      <point x="625.0" y="253.0"/>
      <point x="625" y="395" type="qcurve" smooth="yes"/>
      <point x="625" y="1456" type="line"/>
      <point x="808" y="1456" type="line"/>
      <point x="808" y="425" type="line" smooth="yes"/>
      <point x="808.0" y="195.0"/>
      <point x="597" y="-30"/>
      <point x="417" y="-30" type="qcurve" smooth="yes"/>
      <point x="236" y="-30"/>
      <point x="25" y="180.0"/>
    </contour>
  </outline>
</glyph>
<glyph name="K" format="2">
  <advance width="1111"/>
  <unicode hex="004B"/>
  <outline>
    <contour>
      <point x="170" y="0" type="line"/>
      <point x="170" y="1456" type="line"/>
      <point x="354" y="1456" type="line"/>
      <point x="354" y="758" type="line"/>
      <point x="899" y="1456" type="line"/>
      <point x="1105" y="1456" type="line"/>
      <point x="354" y="524" type="line"/>
      <point x="354" y="0" type="line"/>
    </contour>
    <contour>
      <point x="924" y="0" type="line"/>
      <point x="435" y="755" type="line"/>
      <point x="546" y="884" type="line"/>
      <point x="1131" y="0" type="line"/>
    </contour>
  </outline>
</glyph>
<glyph name="N" format="2">
  <advance width="1291"/>
  <unicode hex="004E"/>
  <anchor x="740" y="1432" name="top"/>
  <outline>
    <contour>
      <point x="170" y="0" type="line"/>
      <point x="170" y="1456" type="line"/>
      <point x="368" y="1456" type="line"/>
      <point x="881" y="432" type="line" smooth="yes"/>
      <point x="894" y="407"/>
      <point x="930" y="324"/>
      <point x="938" y="291" type="qcurve"/>
      <point x="945" y="291" type="line"/>
      <point x="942" y="326"/>
      <point x="942" y="418"/>
      <point x="942" y="450" type="qcurve" smooth="yes"/>
      <point x="942" y="1456" type="line"/>
      <point x="1121" y="1456" type="line"/>
      <point x="1121" y="0" type="line"/>
      <point x="923" y="0" type="line"/>
      <point x="405" y="1030" type="line" smooth="yes"/>
      <point x="390" y="1060"/>
      <point x="361" y="1124"/>
      <point x="351" y="1156" type="qcurve"/>
      <point x="343" y="1156" type="line"/>
      <point x="346" y="1122"/>
      <point x="347" y="1044"/>
      <point x="347" y="1010" type="qcurve" smooth="yes"/>
      <point x="347" y="0" type="line"/>
    </contour>
  </outline>
</glyph>
<glyph name="P" format="2">
  <advance width="1084"/>
  <unicode hex="0050"/>
  <outline>
    <contour>
      <point x="170" y="0" type="line"/>
      <point x="170" y="1456" type="line"/>
      <point x="574" y="1456" type="line" smooth="yes"/>
      <point x="784" y="1456"/>
      <point x="1008" y="1215"/>
      <point x="1008" y="1016" type="qcurve" smooth="yes"/>
      <point x="1008" y="817"/>
      <point x="784" y="572"/>
      <point x="574" y="572" type="qcurve" smooth="yes"/>
      <point x="354" y="572" type="line"/>
      <point x="354" y="0" type="line"/>
    </contour>
    <contour>
      <point x="354" y="726" type="line"/>
      <point x="574" y="726" type="line" smooth="yes"/>
      <point x="713" y="726"/>
      <point x="824" y="890"/>
      <point x="824" y="1016" type="qcurve" smooth="yes"/>
      <point x="824" y="1143"/>
      <point x="713" y="1303"/>
      <point x="574" y="1303" type="qcurve" smooth="yes"/>
      <point x="354" y="1303" type="line"/>
    </contour>
  </outline>
</glyph>
<glyph name="R" format="2">
  <advance width="1104"/>
  <unicode hex="0052"/>
  <outline>
    <contour>
      <point x="170" y="0" type="line"/>
      <point x="170" y="1456" type="line"/>
      <point x="566" y="1456" type="line" smooth="yes"/>
      <point x="772" y="1456"/>
      <point x="996" y="1242"/>
      <point x="996" y="1029" type="qcurve" smooth="yes"/>
      <point x="996" y="816"/>
      <point x="772" y="596"/>
      <point x="566" y="596" type="qcurve" smooth="yes"/>
      <point x="354" y="596" type="line"/>
      <point x="354" y="0" type="line"/>
    </contour>
    <contour>
      <point x="354" y="748" type="line"/>
      <point x="566" y="748" type="line" smooth="yes"/>
      <point x="703" y="748"/>
      <point x="812" y="907"/>
      <point x="812" y="1029" type="qcurve" smooth="yes"/>
      <point x="812" y="1152"/>
      <point x="703" y="1305"/>
      <point x="566" y="1305" type="qcurve" smooth="yes"/>
      <point x="354" y="1305" type="line"/>
    </contour>
    <contour>
      <point x="862" y="0" type="line"/>
      <point x="552" y="672" type="line"/>
      <point x="746" y="672" type="line"/>
      <point x="1064" y="0" type="line"/>
    </contour>
  </outline>
</glyph>
<glyph name="U" format="2">
  <advance width="1218"/>
  <unicode hex="0055"/>
  <anchor x="682" y="1432" name="top"/>
  <outline>
    <contour>
      <point x="155" y="470" type="qcurve" smooth="yes"/>
      <point x="155" y="1456" type="line"/>
      <point x="338" y="1456" type="line"/>
      <point x="338" y="430" type="line" smooth="yes"/>
      <point x="338.0" y="257.0"/>
      <point x="483" y="129"/>
      <point x="609" y="129" type="qcurve" smooth="yes"/>
      <point x="734" y="129"/>
      <point x="878.0" y="258.0"/>
      <point x="878" y="430" type="qcurve" smooth="yes"/>
      <point x="878" y="1456" type="line"/>
      <point x="1062" y="1456" type="line"/>
      <point x="1062" y="470" type="line" smooth="yes"/>
      <point x="1062" y="220"/>
      <point x="804" y="-30"/>
      <point x="609" y="-30" type="qcurve" smooth="yes"/>
      <point x="414" y="-30"/>
      <point x="155" y="220"/>
    </contour>
  </outline>
</glyph>
<glyph name="W" format="2">
  <advance width="1585"/>
  <unicode hex="0057"/>
  <outline>
    <contour>
      <point x="346" y="-10" type="line"/>
      <point x="50" y="1456" type="line"/>
      <point x="228" y="1456" type="line"/>
      <point x="429" y="370" type="line" smooth="yes"/>
      <point x="436" y="334"/>
      <point x="441" y="298"/>
      <point x="444" y="262" type="qcurve"/>
      <point x="452" y="262" type="line"/>
      <point x="454" y="298"/>
      <point x="461" y="334"/>
      <point x="469" y="370" type="qcurve" smooth="yes"/>
      <point x="697" y="1456" type="line"/>
      <point x="889" y="1456" type="line"/>
      <point x="1130" y="370" type="line" smooth="yes"/>
      <point x="1138" y="334"/>
      <point x="1145" y="298"/>
      <point x="1148" y="262" type="qcurve"/>
      <point x="1156" y="262" type="line"/>
      <point x="1160" y="298"/>
      <point x="1165" y="334"/>
      <point x="1171" y="370" type="qcurve" smooth="yes"/>
      <point x="1358" y="1456" type="line"/>
      <point x="1535" y="1456" type="line"/>
      <point x="1240" y="-10" type="line"/>
      <point x="1054" y="-10" type="line"/>
      <point x="814" y="1084" type="line" smooth="yes"/>
      <point x="806" y="1120"/>
      <point x="799" y="1171"/>
      <point x="796" y="1206" type="qcurve"/>
      <point x="788" y="1206" type="line"/>
      <point x="786" y="1171"/>
      <point x="779" y="1120"/>
      <point x="771" y="1084" type="qcurve" smooth="yes"/>
      <point x="530" y="-10" type="line"/>
    </contour>
  </outline>
</glyph>
<glyph name="Y" format="2">
  <advance width="1042"/>
  <unicode hex="0059"/>
  <anchor x="615" y="1432" name="top"/>
  <outline>
    <contour>
      <point x="429" y="0" type="line"/>
      <point x="429" y="546" type="line"/>
      <point x="15" y="1456" type="line"/>
      <point x="215" y="1456" type="line"/>
      <point x="472" y="867" type="line" smooth="yes"/>
      <point x="485" y="837"/>
      <point x="510" y="768"/>
      <point x="520" y="738" type="qcurve"/>
      <point x="528" y="738" type="line"/>
      <point x="538" y="768"/>
      <point x="563" y="837"/>
      <point x="576" y="867" type="qcurve" smooth="yes"/>
      <point x="836" y="1456" type="line"/>
      <point x="1027" y="1456" type="line"/>
      <point x="613" y="546" type="line"/>
      <point x="613" y="0" type="line"/>
    </contour>
  </outline>
</glyph>
<glyph name="c" format="2">
  <advance width="899"/>
  <unicode hex="0063"/>
  <anchor x="571.0" y="0.0" name="bottom"/>
  <outline>
    <contour>
      <point x="85" y="510" type="qcurve" smooth="yes"/>
      <point x="85" y="542" type="line" smooth="yes"/>
      <point x="85" y="800.0"/>
      <point x="306" y="1082"/>
      <point x="500" y="1082" type="qcurve" smooth="yes"/>
      <point x="679" y="1082"/>
      <point x="864.0" y="865.0"/>
      <point x="864" y="715" type="qcurve" smooth="yes"/>
      <point x="864" y="710" type="line"/>
      <point x="692" y="710" type="line"/>
      <point x="692" y="715" type="line" smooth="yes"/>
      <point x="692" y="802"/>
      <point x="608" y="933"/>
      <point x="499" y="933" type="qcurve" smooth="yes"/>
      <point x="382" y="933"/>
      <point x="267.0" y="737.0"/>
      <point x="267" y="572" type="qcurve" smooth="yes"/>
      <point x="267" y="480" type="line" smooth="yes"/>
      <point x="267" y="315"/>
      <point x="378" y="118.0"/>
      <point x="490" y="118.0" type="qcurve" smooth="yes"/>
      <point x="601" y="118"/>
      <point x="692" y="250"/>
      <point x="692" y="337" type="qcurve" smooth="yes"/>
      <point x="692" y="342" type="line"/>
      <point x="864" y="342" type="line"/>
      <point x="864" y="337" type="line" smooth="yes"/>
      <point x="864.0" y="187.0"/>
      <point x="679" y="-30"/>
      <point x="492" y="-30.0" type="qcurve" smooth="yes"/>
      <point x="306" y="-30"/>
      <point x="85" y="252.0"/>
    </contour>
  </outline>
</glyph>
<glyph name="g" format="2">
  <advance width="1032"/>
  <unicode hex="0067"/>
  <outline>
    <contour>
      <point x="119" y="-286" type="qcurve"/>
      <point x="226" y="-150" type="line"/>
      <point x="263" y="-200"/>
      <point x="394" y="-279"/>
      <point x="477" y="-279" type="qcurve" smooth="yes"/>
      <point x="583" y="-279"/>
      <point x="706" y="-122"/>
      <point x="706" y="20" type="qcurve" smooth="yes"/>
      <point x="706" y="109" type="line"/>
      <point x="668" y="50"/>
      <point x="541" y="-20"/>
      <point x="438" y="-20" type="qcurve" smooth="yes"/>
      <point x="274" y="-20"/>
      <point x="85" y="270"/>
      <point x="85" y="510" type="qcurve" smooth="yes"/>
      <point x="85" y="542" type="line" smooth="yes"/>
      <point x="85" y="772"/>
      <point x="284" y="1072"/>
      <point x="451" y="1072" type="qcurve" smooth="yes"/>
      <point x="541" y="1072"/>
      <point x="677" y="990"/>
      <point x="710" y="930" type="qcurve"/>
      <point x="714" y="930" type="line"/>
      <point x="721" y="1052" type="line"/>
      <point x="884" y="1052" type="line"/>
      <point x="884" y="20" type="line" smooth="yes"/>
      <point x="884" y="-200"/>
      <point x="661" y="-436"/>
      <point x="482" y="-436" type="qcurve" smooth="yes"/>
      <point x="370" y="-436"/>
      <point x="184" y="-352"/>
    </contour>
    <contour>
      <point x="267" y="476" type="line" smooth="yes"/>
      <point x="267" y="314"/>
      <point x="374" y="128"/>
      <point x="487" y="128.0" type="qcurve" smooth="yes"/>
      <point x="575.0" y="128.0"/>
      <point x="688.0" y="225.0"/>
      <point x="706" y="288" type="qcurve"/>
      <point x="706" y="764" type="line"/>
      <point x="685" y="816"/>
      <point x="579" y="924.0"/>
      <point x="501" y="924.0" type="qcurve" smooth="yes"/>
      <point x="377" y="924"/>
      <point x="267" y="730"/>
      <point x="267" y="568" type="qcurve" smooth="yes"/>
    </contour>
  </outline>
</glyph>
<glyph name="n" format="2">
  <advance width="1011"/>
  <unicode hex="006E"/>
  <anchor x="597.0" y="1052.0" name="top"/>
  <outline>
    <contour>
      <point x="148" y="0" type="line"/>
      <point x="148" y="1052" type="line"/>
      <point x="311" y="1052" type="line"/>
      <point x="318" y="932" type="line"/>
      <point x="322" y="932" type="line"/>
      <point x="368" y="998"/>
      <point x="504" y="1072"/>
      <point x="586" y="1072" type="qcurve" smooth="yes"/>
      <point x="718" y="1072"/>
      <point x="873" y="900"/>
      <point x="873" y="698" type="qcurve" smooth="yes"/>
      <point x="873" y="0" type="line"/>
      <point x="695" y="0" type="line"/>
      <point x="695" y="710" type="line" smooth="yes"/>
      <point x="695.0" y="820.0"/>
      <point x="615" y="921"/>
      <point x="530" y="921" type="qcurve" smooth="yes"/>
      <point x="453" y="921.0"/>
      <point x="348" y="828"/>
      <point x="326" y="774" type="qcurve"/>
      <point x="326" y="0" type="line"/>
    </contour>
  </outline>
</glyph>
<glyph name="o" format="2">
  <advance width="1016"/>
  <unicode hex="006F"/>
  <anchor x="581" y="1052" name="top"/>
  <outline>
    <contour>
      <point x="85" y="510" type="qcurve" smooth="yes"/>
      <point x="85" y="542" type="line" smooth="yes"/>
      <point x="85" y="800.0"/>
      <point x="315" y="1082"/>
      <point x="508" y="1082" type="qcurve" smooth="yes"/>
      <point x="701" y="1082"/>
      <point x="932.0" y="800.0"/>
      <point x="932" y="542" type="qcurve" smooth="yes"/>
      <point x="932" y="510" type="line" smooth="yes"/>
      <point x="932.0" y="252.0"/>
      <point x="701" y="-30"/>
      <point x="508" y="-30" type="qcurve" smooth="yes"/>
      <point x="315" y="-30"/>
      <point x="85" y="252.0"/>
    </contour>
    <contour>
      <point x="267" y="572" type="qcurve" smooth="yes"/>
      <point x="267" y="480" type="line" smooth="yes"/>
      <point x="267.0" y="315.0"/>
      <point x="388" y="118"/>
      <point x="508" y="118" type="qcurve" smooth="yes"/>
      <point x="628" y="118"/>
      <point x="750.0" y="315.0"/>
      <point x="750" y="480" type="qcurve" smooth="yes"/>
      <point x="750" y="572" type="line" smooth="yes"/>
      <point x="750.0" y="742"/>
      <point x="634.0" y="934.0"/>
      <point x="508" y="934" type="qcurve" smooth="yes"/>
      <point x="382" y="934"/>
      <point x="267" y="737"/>
    </contour>
  </outline>
</glyph>
<glyph name="w" format="2">
  <advance width="1336"/>
  <unicode hex="0077"/>
  <outline>
    <contour>
      <point x="25" y="1052" type="line"/>
      <point x="198" y="1052" type="line"/>
      <point x="342" y="384" type="line" smooth="yes"/>
      <point x="351" y="344"/>
      <point x="365" y="274"/>
      <point x="370" y="234" type="qcurve"/>
      <point x="376" y="234" type="line"/>
      <point x="382" y="274"/>
      <point x="397" y="344"/>
      <point x="408" y="384" type="qcurve" smooth="yes"/>
      <point x="591" y="1052" type="line"/>
      <point x="752" y="1052" type="line"/>
      <point x="936" y="384" type="line" smooth="yes"/>
      <point x="947" y="344"/>
      <point x="961" y="274"/>
      <point x="967" y="234" type="qcurve"/>
      <point x="973" y="234" type="line"/>
      <point x="979" y="274"/>
      <point x="994" y="344"/>
      <point x="1002" y="384" type="qcurve" smooth="yes"/>
      <point x="1144" y="1052" type="line"/>
      <point x="1310" y="1052" type="line"/>
      <point x="1051" y="0" type="line"/>
      <point x="890" y="0" type="line"/>
      <point x="707" y="657" type="line" smooth="yes"/>
      <point x="696" y="697"/>
      <point x="677" y="777"/>
      <point x="671" y="817" type="qcurve"/>
      <point x="661" y="817" type="line"/>
      <point x="653" y="777"/>
      <point x="637" y="697"/>
      <point x="626" y="657" type="qcurve" smooth="yes"/>
      <point x="446" y="0" type="line"/>
      <point x="285" y="0" type="line"/>
    </contour>
  </outline>
</glyph>
<glyph name="y" format="2">
  <advance width="824"/>
  <unicode hex="0079"/>
  <anchor x="480" y="1052" name="top"/>
  <outline>
    <contour>
      <point x="52" y="-416" type="qcurve"/>
      <point x="52" y="-263" type="line"/>
      <point x="74" y="-271"/>
      <point x="129" y="-281"/>
      <point x="154" y="-281" type="qcurve" smooth="yes"/>
      <point x="212" y="-281"/>
      <point x="285" y="-202"/>
      <point x="349" y="9" type="qcurve"/>
      <point x="349" y="10" type="line"/>
      <point x="17" y="1052" type="line"/>
      <point x="197" y="1052" type="line"/>
      <point x="392" y="374" type="line" smooth="yes"/>
      <point x="404" y="334"/>
      <point x="419" y="264"/>
      <point x="424" y="224" type="qcurve"/>
      <point x="430" y="224" type="line"/>
      <point x="434" y="264"/>
      <point x="451" y="334"/>
      <point x="462" y="374" type="qcurve" smooth="yes"/>
      <point x="650" y="1052" type="line"/>
      <point x="824" y="1052" type="line"/>
      <point x="479" y="-63" type="line" smooth="yes"/>
      <point x="412" y="-280"/>
      <point x="268" y="-436"/>
      <point x="163" y="-436" type="qcurve" smooth="yes"/>
      <point x="128" y="-436"/>
      <point x="75" y="-426"/>
    </contour>
  </outline>
</glyph>
<glyph name="currency" format="2">
  <advance width="1058"/>
  <unicode hex="00A4"/>
  <guideline x="0.0" y="901.0" angle="0.0" identifier="bRYxxRaQQf"/>
  <guideline x="0.0" y="555.0" angle="0.0" identifier="917FhrihjR"/>
  <outline>
    <contour>
      <point x="261" y="712" type="qcurve"/>
      <point x="261" y="567"/>
      <point x="395" y="373"/>
      <point x="526" y="373" type="qcurve" smooth="yes"/>
      <point x="656" y="373"/>
      <point x="789" y="567"/>
      <point x="789" y="712" type="qcurve" smooth="yes"/>
      <point x="789" y="855"/>
      <point x="656" y="1049"/>
      <point x="526" y="1049" type="qcurve" smooth="yes"/>
      <point x="395" y="1049"/>
      <point x="261" y="855"/>
    </contour>
    <contour>
      <point x="78" y="718" type="qcurve"/>
      <point x="78" y="933"/>
      <point x="324" y="1225"/>
      <point x="525" y="1225" type="qcurve" smooth="yes"/>
      <point x="726" y="1225"/>
      <point x="972" y="933"/>
      <point x="972" y="718" type="qcurve" smooth="yes"/>
      <point x="972" y="504"/>
      <point x="726" y="209"/>
      <point x="525" y="209" type="qcurve" smooth="yes"/>
      <point x="324" y="209"/>
      <point x="78" y="504"/>
    </contour>
    <contour>
      <point x="1019" y="1176" type="line"/>
      <point x="817" y="970" type="line"/>
      <point x="695" y="1097" type="line"/>
      <point x="897" y="1303" type="line"/>
    </contour>
    <contour>
      <point x="335" y="354" type="line"/>
      <point x="133" y="148" type="line"/>
      <point x="12" y="274" type="line"/>
      <point x="214" y="479" type="line"/>
    </contour>
    <contour>
      <point x="923" y="155" type="line"/>
      <point x="721" y="361" type="line"/>
      <point x="844" y="487" type="line"/>
      <point x="1046" y="282" type="line"/>
    </contour>
    <contour>
      <point x="231" y="984" type="line"/>
      <point x="29" y="1190" type="line"/>
      <point x="150" y="1316" type="line"/>
      <point x="352" y="1110" type="line"/>
    </contour>
  </outline>
</glyph>
<glyph name="guillemotleft" format="2">
  <advance width="1035"/>
  <unicode hex="00AB"/>
  <guideline x="0.0" y="901.0" angle="0.0" identifier="ZftBQarVKw"/>
  <guideline x="0.0" y="555.0" angle="0.0" identifier="MVJpdoVRVd"/>
  <outline>
    <contour>
      <point x="108" y="522" type="line"/>
      <point x="108" y="581" type="line"/>
      <point x="353" y="949" type="line"/>
      <point x="515" y="949" type="line"/>
      <point x="307" y="551" type="line"/>
      <point x="515" y="153" type="line"/>
      <point x="353" y="153" type="line"/>
    </contour>
    <contour>
      <point x="548" y="522" type="line"/>
      <point x="548" y="581" type="line"/>
      <point x="793" y="949" type="line"/>
      <point x="955" y="949" type="line"/>
      <point x="747" y="551" type="line"/>
      <point x="955" y="153" type="line"/>
      <point x="793" y="153" type="line"/>
    </contour>
  </outline>
</glyph>
<glyph name="logicalnot" format="2">
  <advance width="948"/>
  <unicode hex="00AC"/>
  <outline>
    <contour>
      <point x="828" y="801" type="line"/>
      <point x="828" y="376" type="line"/>
      <point x="649" y="376" type="line"/>
      <point x="649" y="643" type="line"/>
      <point x="58" y="643" type="line"/>
      <point x="58" y="801" type="line"/>
    </contour>
  </outline>
</glyph>
<glyph name="onesuperior" format="2">
  <advance width="661"/>
  <unicode hex="00B9"/>
  <outline>
    <contour>
      <point x="123.0" y="1211.0" type="line"/>
      <point x="123.0" y="1370.0" type="line"/>
      <point x="407.0" y="1486.0" type="line"/>
      <point x="451.0" y="1486.0" type="line"/>
      <point x="451.0" y="697.0" type="line"/>
      <point x="289.0" y="697.0" type="line"/>
      <point x="289.0" y="1278.0" type="line"/>
    </contour>
  </outline>
</glyph>
<glyph name="multiply" format="2">
  <advance width="909"/>
  <unicode hex="00D7"/>
  <outline>
    <contour>
      <point x="188" y="237" type="line"/>
      <point x="80" y="349" type="line"/>
      <point x="718" y="1104" type="line"/>
      <point x="826" y="991" type="line"/>
    </contour>
    <contour>
      <point x="710" y="237" type="line"/>
      <point x="83" y="980" type="line"/>
      <point x="202" y="1104" type="line"/>
      <point x="829" y="360" type="line"/>
    </contour>
  </outline>
</glyph>
<glyph name="guilsinglright" format="2">
  <advance width="595"/>
  <unicode hex="203A"/>
  <guideline x="0.0" y="901.0" angle="0.0" identifier="Amp5Ormvx4"/>
  <guideline x="0.0" y="555.0" angle="0.0" identifier="JDX5vz3jKp"/>
  <outline>
    <contour>
      <point x="80" y="153" type="line"/>
      <point x="288" y="551" type="line"/>
      <point x="80" y="949" type="line"/>
      <point x="242" y="949" type="line"/>
      <point x="487" y="580" type="line"/>
      <point x="487" y="521" type="line"/>
      <point x="242" y="153" type="line"/>
    </contour>
  </outline>
</glyph>
<glyph name="won" format="2">
  <advance width="1736"/>
  <unicode hex="20A9"/>
  <outline>
    <contour>
      <point x="48" y="884" type="line"/>
      <point x="48" y="1013" type="line"/>
      <point x="336" y="1013" type="line"/>
      <point x="336" y="1003" type="line"/>
      <point x="1412" y="1003" type="line"/>
      <point x="1412" y="1013" type="line"/>
      <point x="1688" y="1015" type="line"/>
      <point x="1688" y="886" type="line"/>
      <point x="1412" y="884" type="line"/>
      <point x="1412" y="889" type="line"/>
      <point x="336" y="889" type="line"/>
      <point x="336" y="884" type="line"/>
    </contour>
    <contour>
      <point x="79" y="524" type="line"/>
      <point x="79" y="653" type="line"/>
      <point x="407" y="653" type="line"/>
      <point x="407" y="648" type="line"/>
      <point x="1333" y="648" type="line"/>
      <point x="1333" y="653" type="line"/>
      <point x="1649" y="655" type="line"/>
      <point x="1649" y="526" type="line"/>
      <point x="1333" y="524" type="line"/>
      <point x="1333" y="534" type="line"/>
      <point x="407" y="534" type="line"/>
      <point x="407" y="524" type="line"/>
    </contour>
    <contour>
      <point x="453" y="-10" type="line"/>
      <point x="115" y="1456" type="line"/>
      <point x="289" y="1456" type="line"/>
      <point x="518" y="378" type="line"/>
      <point x="536" y="250" type="line"/>
      <point x="542" y="250" type="line"/>
      <point x="560" y="378" type="line" smooth="yes"/>
      <point x="758" y="1456" type="line"/>
      <point x="956" y="1456" type="line"/>
      <point x="1184" y="378" type="line"/>
      <point x="1202" y="250" type="line"/>
      <point x="1208" y="250" type="line"/>
      <point x="1226" y="378" type="line" smooth="yes"/>
      <point x="1425" y="1456" type="line"/>
      <point x="1587" y="1456" type="line"/>
      <point x="1289" y="-10" type="line"/>
      <point x="1111" y="-10" type="line"/>
      <point x="885" y="1100" type="line"/>
      <point x="864" y="1228" type="line"/>
      <point x="858" y="1228" type="line"/>
      <point x="837" y="1100" type="line" smooth="yes"/>
      <point x="631" y="-10" type="line"/>
    </contour>
  </outline>
</glyph>
<glyph name="uni20B1" format="2">
  <advance width="984"/>
  <unicode hex="20B1"/>
  <outline>
    <contour>
      <point x="404" y="421.0" type="qcurve" smooth="yes"/>
      <point x="187" y="421.0" type="line"/>
      <point x="187.0" y="577" type="line"/>
      <point x="402.0" y="577" type="line" smooth="yes"/>
      <point x="556.0" y="577.0"/>
      <point x="668.0" y="759.0"/>
      <point x="668.0" y="945" type="qcurve" smooth="yes"/>
      <point x="668" y="1131"/>
      <point x="556.0" y="1300.0"/>
      <point x="402.0" y="1300" type="qcurve" smooth="yes"/>
      <point x="277" y="1300" type="line"/>
      <point x="277" y="0" type="line"/>
      <point x="89" y="0" type="line"/>
      <point x="89" y="1456" type="line"/>
      <point x="405" y="1456.0" type="line" smooth="yes"/>
      <point x="640.0" y="1456.0"/>
      <point x="854" y="1203"/>
      <point x="854.0" y="955" type="qcurve" smooth="yes"/>
      <point x="854" y="725.0"/>
      <point x="639.0" y="421.0"/>
    </contour>
    <contour>
      <point x="-1" y="984" type="line"/>
      <point x="-1" y="1133" type="line"/>
      <point x="201" y="1133" type="line"/>
      <point x="201" y="1108" type="line"/>
      <point x="747" y="1108" type="line"/>
      <point x="747" y="1133" type="line"/>
      <point x="979" y="1135" type="line"/>
      <point x="979" y="986" type="line"/>
      <point x="767" y="984" type="line"/>
      <point x="767" y="999" type="line"/>
      <point x="201" y="999" type="line"/>
      <point x="201" y="984" type="line"/>
    </contour>
    <contour>
      <point x="-1" y="714" type="line"/>
      <point x="-1" y="863" type="line"/>
      <point x="201" y="863" type="line"/>
      <point x="201" y="848" type="line"/>
      <point x="767" y="848" type="line"/>
      <point x="767" y="863" type="line"/>
      <point x="979" y="865" type="line"/>
      <point x="979" y="716" type="line"/>
      <point x="727" y="714" type="line"/>
      <point x="727" y="738" type="line"/>
      <point x="201" y="738" type="line"/>
      <point x="201" y="714" type="line"/>
    </contour>
  </outline>
</glyph>
<glyph name="uni20B2" format="2">
  <advance width="984"/>
  <unicode hex="20B2"/>
  <outline>
    <contour>
      <point x="463" y="-190" type="line"/>
      <point x="463" y="57" type="line"/>
      <point x="481" y="71" type="line"/>
      <point x="481" y="708" type="line"/>
      <point x="603" y="708" type="line"/>
      <point x="603" y="70" type="line"/>
      <point x="625" y="60" type="line"/>
      <point x="625" y="-190" type="line"/>
    </contour>
    <contour>
      <point x="481" y="708" type="line"/>
      <point x="481" y="1342" type="line"/>
      <point x="466" y="1352" type="line"/>
      <point x="466" y="1582" type="line"/>
      <point x="618" y="1582" type="line"/>
      <point x="618" y="1352" type="line"/>
      <point x="603" y="1339" type="line"/>
      <point x="603" y="708" type="line"/>
    </contour>
    <contour>
      <point x="955" y="725" type="line"/>
      <point x="955" y="452" type="line" smooth="yes"/>
      <point x="955" y="259"/>
      <point x="734" y="-5"/>
      <point x="551" y="-5" type="qcurve" smooth="yes"/>
      <point x="330" y="-5"/>
      <point x="94" y="288"/>
      <point x="94.0" y="542.0" type="qcurve" smooth="yes"/>
      <point x="94.0" y="897.0" type="line" smooth="yes"/>
      <point x="94" y="1196"/>
      <point x="330" y="1485"/>
      <point x="529" y="1485.0" type="qcurve" smooth="yes"/>
      <point x="707" y="1485.0"/>
      <point x="901" y="1340"/>
      <point x="949" y="1265" type="qcurve"/>
      <point x="833" y="1131" type="line"/>
      <point x="778" y="1204"/>
      <point x="653" y="1309.0"/>
      <point x="537" y="1309.0" type="qcurve" smooth="yes"/>
      <point x="405" y="1309"/>
      <point x="288.0" y="1112"/>
      <point x="288.0" y="899.0" type="qcurve" smooth="yes"/>
      <point x="288.0" y="544.0" type="line" smooth="yes"/>
      <point x="288.0" y="359"/>
      <point x="415" y="142"/>
      <point x="565" y="142" type="qcurve" smooth="yes"/>
      <point x="652" y="142"/>
      <point x="773" y="299"/>
      <point x="783" y="433" type="qcurve" smooth="yes"/>
      <point x="783" y="573" type="line"/>
      <point x="656" y="573" type="line"/>
      <point x="656" y="725" type="line"/>
    </contour>
  </outline>
</glyph>
<glyph name="gravecomb.case" format="2">
  <advance width="1024"/>
  <outline>
    <contour>
      <point x="477" y="1576" type="line"/>
      <point x="179" y="1940" type="line"/>
      <point x="362" y="2008" type="line"/>
      <point x="602" y="1630" type="line"/>
    </contour>
  </outline>
</glyph>
<glyph name="horncomb.case" format="2">
  <advance width="1024"/>
  <outline>
    <contour>
      <point x="382" y="1456" type="line"/>
      <point x="455" y="1456.0" type="line" smooth="yes"/>
      <point x="518.0" y="1456.0"/>
      <point x="593" y="1487"/>
      <point x="593.0" y="1544" type="qcurve" smooth="yes"/>
      <point x="593" y="1585"/>
      <point x="582" y="1658"/>
      <point x="573" y="1694" type="qcurve"/>
      <point x="693" y="1694" type="line"/>
      <point x="710.0" y="1663"/>
      <point x="744" y="1553"/>
      <point x="744" y="1494" type="qcurve" smooth="yes"/>
      <point x="744" y="1406"/>
      <point x="626.0" y="1341.0"/>
      <point x="530" y="1341.0" type="qcurve" smooth="yes"/>
      <point x="484" y="1341"/>
      <point x="408" y="1353"/>
      <point x="382" y="1362" type="qcurve"/>
    </contour>
  </outline>
</glyph>
<glyph name="two.prop" format="2">
  <advance width="1038"/>
  <outline>
    <contour>
      <point x="110" y="0" type="line"/>
      <point x="110" y="136" type="line"/>
      <point x="556" y="751" type="line" smooth="yes"/>
      <point x="636" y="856"/>
      <point x="717" y="1012"/>
      <point x="717" y="1105" type="qcurve" smooth="yes"/>
      <point x="717" y="1207"/>
      <point x="612" y="1333"/>
      <point x="518" y="1333" type="qcurve" smooth="yes"/>
      <point x="423" y="1333"/>
      <point x="292" y="1187"/>
      <point x="292" y="1030" type="qcurve" smooth="yes"/>
      <point x="292" y="1020" type="line"/>
      <point x="110" y="1020" type="line"/>
      <point x="110" y="1030" type="line" smooth="yes"/>
      <point x="110" y="1244"/>
      <point x="346" y="1486"/>
      <point x="518" y="1486" type="qcurve" smooth="yes"/>
      <point x="689" y="1486"/>
      <point x="899" y="1276"/>
      <point x="899" y="1115" type="qcurve" smooth="yes"/>
      <point x="899" y="996"/>
      <point x="785" y="798"/>
      <point x="682" y="658" type="qcurve" smooth="yes"/>
      <point x="310" y="151" type="line"/>
      <point x="933" y="151" type="line"/>
      <point x="933" y="0" type="line"/>
    </contour>
  </outline>
</glyph>
